<svg xmlns="http://www.w3.org/2000/svg" xml:space="preserve" viewBox="0 0 60.9 90.3"><path d="M26.1 69.2c-2.4 2.2-6.2 6.1-6.2 9.6 0 2.7 2.6 4 4.8 4.8q1 .4 2.2.4 8.8-.3 15.7-3 4-1.4 7.3-3.9h.3q.5 0 .8.3c1 1-1.5 3-2.2 3.6-2.5 1.7-5.1 3.2-7.8 4.8-4 2.4-8.6 4.4-13.5 4.5-6.4 0-13.1-1.2-15.4-8.1q-.8-2.4-.7-5.5c.2-5.2 3-9.7 6.8-13.3q3.1-3 6.8-5l3.6-2.1q8-5 14.2-9.5c2.7-2 5.5-4 7.8-6.4l1-1.2c4.2-3 5.6-9 5.3-13.8q-.3-3.8-1.2-7.2 0-.4.2-.2c3 2.2 4.5 6 4.9 9.5q.5 5.4-1.2 11-.4 1.2-1.3 2.6-2.6 4.5-6.5 8.4-5.6 5.7-12.7 10.2c-4.6 2.9-9 6-13 9.5zM43.3 9.7l-1.9 9.5v.1h-2l-.7-13.4v-.1L34.2 3l-.5-3h3.4l4 3.4L53 1l1.2 1.4v.2L45.7 7v.2l4.7 4 5.1-.7.1.2-5.6 6.5h-.2l-.9-4.6-5.4-3h-.2z"/><path d="M22.6 34.8H.9a.2.2 0 0 1-.2-.1Q-.2 31 0 26.9q.1-2.6.6-4.4 0-.2.2-.2h54.7l.1.1-.2 6.6q-.1 1.7-.5 3.3c-.2 1-.7 2.3-1.8 2.3l-12.9.1-1.5.1-.1.2v13l-.2.1L23 57.6l-.2-.1V35q0-.2-.2-.2zm5.5 47.7c-1.4 0-3-.4-4.1-1.2a.3.3 17.6 0 1-.2-.3v-6.4q0-.2.2-.3l14.3-12.2h.1v19l-.1.1c-3.5 1-6.7 1.5-10.2 1.3z"/></svg>