<svg xmlns="http://www.w3.org/2000/svg" xml:space="preserve" viewBox="0 0 215.1 93.8"><path fill="none" stroke="#085c90" stroke-width=".5" d="M170.6 58.7q-.5.8-.3 2.1" vector-effect="non-scaling-stroke"/><path fill="none" stroke="#112b44" stroke-width=".5" d="M212.4 68.5q.2-1 .1-1.9l.1-1.4q0-.8-.3-1.6m-5.3 5.2.3-1.4q.1-4.2-.1-8.5M96.1 65.7l.1-.2q.3-.3.3-.7m1.1-2.4q.4-.1.3-.7" vector-effect="non-scaling-stroke"/><path fill="none" stroke="#085c90" stroke-width=".5" d="m100.6 59.2-.2 1.7.2 8m-1.8-7.6q-.2 0-.3.3l-1.1 2.6v.2q-.4.4-.4.8l-.1.2q-.3.3 0 .6m-.2.3-.4.2q-.4.6-.4 1.3m.1 0h-.1l-.1.1q-.4.6-.5 1.3" vector-effect="non-scaling-stroke"/><path fill="none" stroke="#112b44" stroke-width=".5" d="M152.4 68.9q.2-3.8.2-7.7l-.1-1-.2-.8" vector-effect="non-scaling-stroke"/><path fill="none" stroke="#085c90" stroke-width=".5" d="M143.3 59.4h-.2v.2q-.1.7.1 1.4m-.1 2.1q-.2 2.7 0 5.4" vector-effect="non-scaling-stroke"/><path fill="none" stroke="#112b44" stroke-width=".5" d="M141.9 69v-6a.3.3 26.8 0 0 0-.2h-.1" vector-effect="non-scaling-stroke"/><path fill="none" stroke="#085c90" stroke-width=".5" d="M185.6 59.4h-.1v.2q-.2.7 0 1.8m0 1.6-.1.4v5.2" vector-effect="non-scaling-stroke"/><path fill="none" stroke="#112b44" stroke-width=".5" d="M184.2 69v-1.3q.2-1.2 0-4.8v-.2" vector-effect="non-scaling-stroke"/><path fill="none" stroke="#085c90" stroke-width=".5" d="M110 63q-.1 2.9.1 5.8" vector-effect="non-scaling-stroke"/><path fill="none" stroke="#112b44" stroke-width=".5" d="M108.7 64.7q.4-.7 0-1.6" vector-effect="non-scaling-stroke"/><path fill="none" stroke="#085c90" stroke-width=".5" d="M106.2 62.3h-.2l-.2.6q-.1.3 0 .8m13.2-.1-.1 1.2m0 0q-.3.3-.2.6m1.4 4.3v1.5m9.4-7.9h-.1v5l.1.4m35.4-5.5q-.2.6-.2 1.4-.1 2.3.2 4.2" vector-effect="non-scaling-stroke"/><path fill="none" stroke="#112b44" stroke-width=".5" d="M159.6 63.5q-.4 1.4-.2 3.3 0 1.2.3 2" vector-effect="non-scaling-stroke"/><path fill="none" stroke="#085c90" stroke-width=".5" d="M181.4 64v3.4" vector-effect="non-scaling-stroke"/><path fill="none" stroke="#112b44" stroke-width=".5" d="M173.9 66.4v-1.7" vector-effect="non-scaling-stroke"/><path fill="none" stroke="#085c90" stroke-width=".5" d="M199.4 64.2q-.4 1 0 2.1m12 15v.8l-.1 10.3q0 .6.2.5M103.8 85l-.2 1.8m0 .1q-.6.4-.9 1" vector-effect="non-scaling-stroke"/><path fill="none" stroke="#112b44" stroke-width=".5" d="M96.5 92.5q.3-1 .2-2V90l-.2-6.2" vector-effect="non-scaling-stroke"/><path fill="none" stroke="#085c90" stroke-width=".5" d="M162.3 90.4q-.4 1.2-.1 2.6m-24.7-9.8h-.2v2m0 1.8q-.2 2.6 0 5.2" vector-effect="non-scaling-stroke"/><path fill="none" stroke="#112b44" stroke-width=".5" d="m136 92.9.1-1q.1-2.7-.1-5.6m54.8 6.7q.2-.5 0-1l.1-.6-.1-5.1" vector-effect="non-scaling-stroke"/><path fill="none" stroke="#085c90" stroke-width=".5" d="m108.3 87.2-.6.6-.1.8v3.7m24.6-5.6.1 5.6" vector-effect="non-scaling-stroke"/><path fill="none" stroke="#112b44" stroke-width=".5" d="M131 88.5q.3-.7-.1-1.6" vector-effect="non-scaling-stroke"/><path fill="none" stroke="#085c90" stroke-width=".5" d="M128.5 85.9q-.2 0-.3.2l-.3 1.5m74.4 4.7q-.6.3-.9.9M115 85.5l-.2.8q-.1 3.2.1 6.4m51.6-.1q-.3-3.6-.1-7.2 0-.3-.3-.2m21-.1q-.3 3.9 0 7.6m-63.2-5.9-1 2-1.3 4.2" vector-effect="non-scaling-stroke"/><path fill="#17304e" d="m43.3 9.7-1.9 9.5v.1h-2l-.7-13.4v-.1L34.2 3l-.5-3h3.4l4 3.4L53 1l1.2 1.4v.2L45.7 7v.2l4.7 4 5.1-.7.1.2-5.6 6.5h-.2l-.9-4.6-5.4-3h-.2z"/><path fill="#0591e5" d="M26.1 69.2c-2.4 2.2-6.2 6.1-6.2 9.6 0 2.7 2.6 4 4.8 4.8q1 .4 2.2.4 8.8-.3 15.7-3 4-1.4 7.3-3.9h.3q.5 0 .8.3c1 1-1.5 3-2.2 3.6-2.5 1.7-5.1 3.2-7.8 4.8-4 2.4-8.6 4.4-13.5 4.5-6.4 0-13.1-1.2-15.4-8.1q-.8-2.4-.7-5.5c.2-5.2 3-9.7 6.8-13.3q3.1-3 6.8-5l3.6-2.1q8-5 14.2-9.5c2.7-2 5.5-4 7.8-6.4l1-1.2c4.2-3 5.6-9 5.3-13.8q-.3-3.8-1.2-7.2 0-.4.2-.2c3 2.2 4.5 6 4.9 9.5q.5 5.4-1.2 11-.4 1.2-1.3 2.6-2.6 4.5-6.5 8.4-5.6 5.7-12.7 10.2c-4.6 2.9-9 6-13 9.5z"/><path fill="#0a263a" d="M22.6 34.8H.9a.2.2 0 0 1-.2-.1Q-.2 31 0 26.9q.1-2.6.6-4.4 0-.2.2-.2h54.7l.1.1-.2 6.6q-.1 1.7-.5 3.3c-.2 1-.7 2.3-1.8 2.3l-12.9.1-1.5.1-.1.2v13l-.2.1L23 57.6l-.2-.1V35q0-.2-.2-.2zm148 23.9q-.5.8-.3 2.1v.6l.2.1h2l.1.2v.5l-.1.1h-2q-.2 0-.2.2v6.2q0 .2.2.2l1.1.2q.2 0 .3.3 0 .3-.2.3h-4q-.2 0-.2-.2v-.2a.2.2 0 0 1 .3-.2l1-.2.1-.2v-6.2q0-.2-.2-.2h-1q-.2 0-.2-.2V62l.2-.1 1.1-.3.1-.1q.3-1.8.7-2.7.8-1.8 3-2c.5 0 1.7.4 1.5 1.1q0 .3-.3.5c-.8.4-1.6-.1-2.2-.6a.2.2 0 0 0-.3 0z"/><path fill="#0591e5" d="M83 69q.4.2 1 .1a.3.3 80.1 0 1 .3.3.2.2 82.8 0 1-.2.3h-3.8a.3.3 0 0 1-.3-.2l.1-.3a.3.3 23.9 0 1 .2 0q.6 0 1-.3.2 0 .2-.2V59l-.1-.2q-.6-.3-1.2-.2H80v-.5l.1-.1 2.5-.7q.3-.1.3.2v11.4z"/><path fill="#0a263a" d="M212.4 68.5q.2-1 .1-1.9l.1-1.4q0-.8-.3-1.6c-.4-1.8-2.7-.9-3.7 0a.3.3 0 0 0 0 .2l-.1 5a.2.2 0 0 0 .1.1q.4.3.9.2l.2.2v.3l-.2.1H206q-.4 0-.2-.3 0-.3.3-.3.5 0 1-.3l.2-1.4q.1-4.2-.1-8.5-.8-.3-1.3-.2l-.2-.1v-.4l.2-.2 2.4-.7a.2.2 0 0 1 .2.2v5.1q0 .4.2.1c1.8-1.8 5-2.3 5 1.3v4.7q0 .2.2.3.4.2.9.1.3 0 .3.3v.1q0 .2-.2.2h-3.6q-.3 0-.3-.2v-.2q.1-.2.4-.2 1.1 0 1-.6zM96.1 65.7l.1-.2q.3-.3.3-.7l1.1-2.4q.4-.1.3-.7l1.5-3.2.1-.1h2.6a.2.2 5 0 1 .2.2v.2q-.1.2-.3.2l-1.4.2-.2 1.7.2 8c.6.3.9.2 1.5.2l.2.2v.2q0 .2-.3.2h-4.2l-.2-.1v-.4a.1.1 8 0 1 .2-.1h1a.4.4 84.2 0 0 .3-.4v-7.6H99l-.2.2q-.2 0-.3.3l-1.1 2.6v.2q-.4.4-.4.8l-.1.2q-.3.3 0 .6-.2.1-.2.3l-.4.2q-.4.6-.4 1.3l-.1.1q-.4.6-.5 1.3 0 .3-.2.5a.3.3 56.7 0 1-.6-.1l-.5-1.4a.2.2 7 0 0 0-.1q-.2 0-.2-.2v-.2L90.7 61h-.1v8q.6.3 1.3.2l.1.1v.3q0 .2-.2.2h-3.6v-.4q0-.2.2-.2.7 0 1.2-.2a.3.3 78.3 0 0 .2-.3v-9.2l-.1-.2q-.7-.3-1.4-.2l-.1-.2v-.3l.1-.1h2.8a.2.2 77.6 0 1 .2.1l3.9 9zm56.3 3.2q.2-3.8.2-7.7l-.1-1-.2-.8q-.5-.5-1.4-.4l-.2-.1v-.3q0-.2.2-.2h4.5l.2.1v.3q0 .2-.2.2l-1.4.2-.1.2v9.3l.1.2q.8.3 1.4.2l.1.1v.5h-4.6a.2.2 0 0 1-.2-.2v-.2a.3.3 4.1 0 1 .3-.2zm18.2-10.2-.3 2.1q-.2-1.3.3-2z"/><path fill="#17304e" d="M207.2 59q.2 4.2 0 8.4l-.1 1.4q-.2-5 0-9.9z"/><path fill="#0a263a" d="M143.3 59.4h-.2v.2q-.1.7.1 1.4v.4l.2.1h2l.1.1v.6l-.1.1h-2q-.2 0-.2.2v.6q-.3 2.7 0 5.4.3.8 1 .7.6 0 1-.3a.2.2 55.8 0 1 .2 0l.2.2v.3q-.9.6-2 .6-1 0-1.7-1v-6a.3.3 26.8 0 0 0-.2h-.1v-.2q0-.2-.2-.2h-1.1l-.2-.1V62q0-.2.2-.2l1.3-.2.1-.2.4-2 .2-.1h.7q.1 0 0 .1zm42.3 0h-.1v.2q-.2.7 0 1.8l2.2.2.1.1v.5l-.1.1h-2q-.2 0-.2.2v.5l-.1.4v5.2q.5.8 1.3.6.4 0 .8-.3h.3v.2q.2.2 0 .3-.8.6-2 .6-1 0-1.6-1v-1.3q.2-1.2 0-4.8v-.2l-.1-.2q0-.2-.2-.2h-1.1l-.2-.1v-.4a.1.1 0 0 1 .1 0q.7 0 1.4-.3l.2-.2.3-2 .2-.1h.7l.1.1zm-85-.2v9.6l-.2-7.9.2-1.7z"/><path fill="#0a263a" d="M143.3 59.4q.1.8-.1 1.6-.2-.7-.1-1.4v-.2h.2zm42.3 0v2q-.3-1.1-.2-1.8v-.2h.2z"/><path fill="#17304e" d="m152.3 59.4.2.9v1l-.1 7.6z"/><path fill="#0591e5" d="M49 63q.1.6.4 0c.5-.9 2-2.5 3.2-1.3.4.5.2 1.1-.4 1.3q-.7.3-1.4-.3-.1-.1-.2 0-.9.6-1.3 1.6-.2.5-.2 1.5v3l.2.1q.5.2 1.1.2.2 0 .2.2v.2q0 .2-.2.2h-3.7q-.3 0-.2-.2v-.2q0-.2.3-.2l.8-.1.1-.2q.2-2.8 0-5.5v-.1q-.6-.3-1.2-.2l-.1-.2v-.3a.2.2 0 0 1 0-.2l2.3-1a.1.1 0 0 1 .2.1l.2 1.6zm7.2-.7-.4 1.2q-.2.7-1 .7h-.2q-.5-.3-.3-.9c.6-2.5 5.7-3 5.8.2v4.3l.1.9a.6.6 0 0 0 .6.4q.3 0 .4-.2h.3l.2.1v.2c-.8 1.3-2.4 1-2.9-.4a.1.1 58 0 0-.2 0c-.8.8-1.7 1.4-2.8 1.2-1.6-.3-2.4-2-1.4-3.3.8-1 2.9-1.6 4.1-1.9a.2.2 0 0 0 .2-.2c.1-.9 0-2.4-1-2.5h-1.3a.2.2 5.1 0 0-.2.2zm17 3.7c0 1.4.7 2.6 2.1 2.9q1.8.3 3-1h.4v.3q-.8 1.4-2.5 1.7c-2.3.5-4.1-1-4.4-3.3q-.3-2.1.8-3.7c1.2-1.6 3.4-2.2 5-1 1.1 1 1.4 2.4 1.1 3.8h-5.3q-.2 0-.2.3z"/><path fill="#0a263a" d="m98.8 61.3-2 4.7q-.2-.3 0-.6.2 0 .2-.2 0-.4.3-.8v-.2l1.2-2.6.3-.3zM110 63q-.1 2.9.1 5.8.5.6 1 .1h.6a.3.3 47.9 0 1 0 .4q-1 1.1-2.2.5-.6-.3-.7-1a.1.1 61.1 0 0-.2 0c-1 1.1-2.7 1.7-4 .6q-.4-.4-.6-1.1c-.2-1 .5-2 1.3-2.4q1.4-.7 3.4-1.2.4-.7 0-1.6c-.4-1.1-1.3-1-2.3-1h-.1l-.1.2h-.2l-.2.6q-.1.3 0 .8-.7.7-1.2.4a.7.7 23.6 0 1-.4-.8c.6-1.6 2.3-2.2 3.9-2q1.4.3 2 1.7zm9 .6-.1 1.2q-.3.3-.2.6l-.2.4-.2.2q-1.5 1.1-3.2.7-.7-.2-.7.6v.3q0 .8.8.8h2.6c.8 0 2 .4 2.3 1.3v1.5q-.5 1.4-2.3 2-1.8.5-3.7 0c-1.5-.5-2.2-2-.9-3.2.2-.2.5-.2.7-.5q.1 0 0-.1-1-.7-.6-2 .2-.5.8-.9.2-.1 0-.2-.6-.4-.9-1-.6-1.2 0-2.5.5-1 1.6-1.3 1.8-.6 3.3.4h.2l1.8-.6a.1.1 0 0 1 .2.1v1.2h-1.5a.1.1 0 0 0 0 .2q.2.3.2.8zm10.5-.3h-.1v5l.1.4q0 .2.4.4h.6q.2 0 .2.3v.1q0 .2-.2.2H127l-.2-.1v-.3a.2.2 0 0 1 .2-.2q.6 0 1-.2l.1-.2v-4.6c0-.3 0-.6-.2-.9-.8-1.2-2.5-.5-3.5.3l-.1.2v5l.1.3.8.1q.2 0 .3.2v.2a.3.3 0 0 1-.2.2h-3.6q-.2 0-.2-.2v-.2a.2.2 7 0 1 .3-.2q.6 0 1-.2v-5.7l-1.1-.3h-.1v-.5l.1-.2 2-.9a.2.2 0 0 1 .4.2v.9q0 .6.5.2c.7-.9 2.2-1.5 3.3-1.2q1.2.3 1.6 1.9zm3.8-.5.3-.5q1-.9 2.2-1 2-.2 3 1.5.4.5.5 1.3v1.5a.2.2 0 0 1-.2.2h-5.2q-.2 0-.1.1 0 2.6 2 3 1.8.4 3-1a.3.2 19.7 0 1 .2 0h.3v.2c-1 2-3.7 2.4-5.5 1.2l-.8-1q-.2 0-.3-.3-1-2.6.3-5h.1l.2-.2zm31.6.4q-.2.6-.2 1.4-.1 2.3.2 4.2.5.4 1 .3.2 0 .3.3 0 .3-.2.3h-3.5q-.3 0-.2-.2v-.1q0-.3.2-.3l1-.2v-.2q.2-2 .1-4.5c0-1.9-1.7-1.9-3-1.2l-1 .5q-.4 1.4-.2 3.3 0 1.2.3 2 0 .3 1 .4a.3.3 78.9 0 1 .3.1v.2q0 .2-.3.2h-3.5q-.2 0-.2-.2v-.2a.2.2 0 0 1 .3-.2l1-.2v-5.5l-.1-.2q-.6-.3-1.1-.2-.2 0-.2-.2v-.5l2.3-1a.2.2 0 0 1 .3.1l.1 1.2q0 .4.3 0c1.4-1.4 4.5-2.3 5 .6zm16.5.8v3.4q-.7 1.6-2.1 2.2-1.3.6-2.8.2-2.3-.7-2.6-3.4v-1.7q.4-2.3 2.2-3c2.3-1 4.4.1 5.3 2.4zm9 2c0 1.4.7 2.6 2.2 3q1.7.2 2.8-1a.2.2 20.4 0 1 .2-.2q.2 0 .3.2v.2c-1.1 2-4.4 2.5-6 .6q-.7-.8-.9-1.9v-1.8q0-1.1.5-1.9 1-1.6 2.8-1.9A3 3 0 0 1 196 64v1.7a.2.2 0 0 1-.2.2h-5.2q-.2 0-.1.1zm9-1.8q-.4 1 0 2.1c.3 2.8 3.2 3.6 5 1.5h.4v.3q-.5 1.2-1.6 1.6-2 .8-3.7-.4c-1.6-1-2-3.6-1.3-5.3l.3-.7q.1-.4.4-.6c1.5-1.7 4-2 5.5-.2q.4.5.4 1a.4.4 65.5 0 1-.1.4q-.5.5-1.2.1l-.1-.2-.5-1.5a.2.2-1.4 0 0-.1-.1q-1-.3-1.6 0-1.3.4-1.8 2z"/><path fill="#0591e5" d="m64.5 62.5 2 5.6h.1l.1-.1 1.8-5.5q.1-.2-.1-.2l-1-.1a.2.2 6.8 0 1-.2-.2v-.3q0-.2.2-.2h2.8l.1.2v.2q0 .2-.2.3-.2.2-.5.1l-.2.2-2.7 7.4-.3.1h-.2q-.2 0-.3-.2l-3-7.2-.1-.2-.8-.3-.1-.3q0-.3.2-.3h3.7q.3 0 .2.3v.2l-.2.1q-.6.3-1.1.2-.2 0-.2.2z"/><path fill="#17304e" d="M97.9 61.7q0 .6-.3.7z"/><path fill="#0a263a" d="M28.1 82.5c-1.4 0-3-.4-4.1-1.2a.3.3 17.6 0 1-.2-.3v-6.4q0-.2.2-.3l14.3-12.2h.1v19l-.1.1c-3.5 1-6.7 1.5-10.2 1.3zm78.1-20.2-.5 1.4.1-.8.2-.5v-.2h.2z"/><path fill="#17304e" d="M141.8 62.7a.3.3 26.8 0 1 0 .2V69q-.2-3 0-6.3zm42.3 0v.2q.3 3.6.2 4.8V69q-.4-3.1-.2-6.3z"/><path fill="#0a263a" d="m110 63 .1 5.8q-.2-3 0-5.8zm75.5 0v5.6q-.2-2.6-.1-5.2l.1-.4z"/><path fill="#17304e" d="M108.6 63q.5 1 0 1.7z"/><path fill="#0591e5" d="M143.1 63.1v5.4q-.2-2.7 0-5.4z"/><path fill="#0a263a" d="M129.5 63.3v5.4l-.2-.4v-5h.2zm35.4-.1q.3 2.8 0 5.6-.3-2-.2-4.2 0-.8.2-1.4z"/><path fill="#17304e" d="M159.6 63.5v5.2l-.2-1.9q-.2-1.9.2-3.3z"/><path fill="#0a263a" d="M119 63.6q.2.6 0 1.3h-.1z"/><path fill="#17304e" d="M212.3 63.6q.3.8.3 1.6v1.4l-.2 2z"/><path fill="#0a263a" d="M181.4 64q.6 1.7 0 3.4zm18 .2v2.1q-.4-1 0-2.1z"/><path fill="#17304e" d="M173.9 64.7v1.7q-.3-.8 0-1.7zm-77.4.1q0 .4-.2.7 0 .2-.2.2 0-.5.4-.9z"/><path fill="#0a263a" d="M118.9 64.8q0 .4-.2.6-.1-.3.2-.6zm-22.2 1.5-.8 1.5q0-.7.4-1.3.2-.3.4-.2zm-.7 1.5q-.2.8-.7 1.4.1-.7.5-1.3h.1zm24.1 1.9q.4.6 0 1.5zm-4.8 12.6a1.1 1 8.5 0 1-1.2 1 1.1 1 8.5 0 1-1-1.3 1.1 1 8.5 0 1 1.3-.9 1.1 1 8.5 0 1 1 1.2zm51.7 0a1.1 1 5.7 0 1-1.3 1 1.1 1 5.7 0 1-1-1.2 1.1 1 5.7 0 1 1.2-1 1.1 1 5.7 0 1 1 1.2zm20.6-.1a1.1 1 3.1 0 1-1.2 1 1.1 1 3.1 0 1-1-1 1.1 1 3.1 0 1 1.1-1 1.1 1 3.1 0 1 1 1zm23.8-.9v.8l-.1 10.3q0 .6.2.5.5.2 1 .1.4 0 .3.3v.1q0 .3-.2.3H211q-.4.2-.8.1l-.1-.1v-.9q-.1-.2-.3 0-.4.5-.9.7-2.4 1-4-1.2-.3-.3-.3-.7l-.1-.2q-.2-.2-.2-.5v-.2h-.1q-.3-2.4.7-4 .9-1.4 2.6-1.6 1.3-.1 2.3 1a.2.2 0 0 0 .3-.2v-3a.3.3 13.1 0 0-.1-.1q-.7-.4-1.3-.3h-.1V82a.2.2 79.6 0 1 0-.2l2.4-.7q.3-.1.3.1z"/><path fill="#0a263a" d="M211.4 81.3q.2 0 .1.2V93q-.2.1-.2-.5V82l.1-.8zM103.8 85l-.2 1.8v.1q-.6.4-.9 1c-1.2 1-3 1.2-4.5 1.2l-.2.1v3.4a.2.2 0 0 0 .2.1q.7.3 1.4.2l.1.2v.3a.2.2 0 0 1-.1.2H95a.3.3 0 0 1-.2-.2v-.3l.1-.1q1.2 0 1.5-.5.3-1 .2-2V90l-.2-6.2v-.6q0-.2-.2-.2h-.9q-.4 0-.5-.4v-.2a.2.2 0 0 1 .2-.2h4.7c1.8 0 3.7.8 4 2.8zm58.5 5.4q-.4 1.2-.1 2.6v.4q0 .2-.2.2h-8.2a.2.2.7 0 1-.2-.3v-.1q0-.2.2-.2l1.3-.3.1-.2V83l-1.4-.2q-.2 0-.2-.2v-.2q0-.2.2-.2h4.5q.2 0 .2.2v.2q0 .2-.2.2l-1.4.2-.1.2v9.5a.1.1 0 0 0 .1 0h3.9l.5-2.1q0-.2.2-.2zm-24.8-7.2h-.2v2l2.2.2q.2 0 .2.2v.3a.2.2-5.7 0 1-.2.2h-2l-.1.2v.6q-.3 2.7 0 5.3c.2 1 1.2 1 2 .5a.2.2 0 0 1 .2 0l.1.2v.3q-1 .7-2.2.6-.9-.1-1.5-1l.1-.9q.1-2.7-.1-5.6-.4-.2-1.3-.2-.3 0-.2-.2v-.2l.1-.2 1.4-.2v-.2l.4-2 .3-.1h.6l.2.1zm53.3 9.8q.2-.5 0-1l.1-.6-.1-5.1q-.4-.2-1.4-.2-.2 0-.2-.2l.1-.2q0-.2.2-.2l1.2-.2q.2 0 .2-.2l.3-2 .1-.1h.9v2.2a.2.2 0 0 0 .1.2h2.1v.6l-.1.1h-2q-.2 0-.2.2V92c0 1.1 1.2 1.3 2 .7q0-.1.2 0 .2 0 .2.3v.2q-2 1.4-3.7-.2z"/><path fill="#0a263a" d="m137.5 83.2-.1 2-.2-1.8v-.1h.3z"/><path fill="#17304e" d="M96.5 83.8q.2 3 .2 6.2v.6l-.2 1.9z"/><path fill="#0a263a" d="M103.8 85q.2 1-.2 1.8zm4.5 2.2-.6.6-.1.8v3.7q-.2.6 1.2.6.2 0 .2.2v.2q0 .3-.2.3H105a.2.2 5.4 0 1-.2-.3v-.2q.1-.2.3-.2l.9-.2v-.2q.3-2.7.1-5.3l-.1-.2q-.6-.3-1.2-.2v-.1q-.2-.5.3-.7l2-.9a.2.2 76.5 0 1 .2.2l.1 1.7q0 .3.2 0l1-1.3c.7-.6 1.6-1 2.3-.2q.3.3.2.8c-.2.9-1.4.7-2 .2h-.1q-.5.3-.8.7zm23.9-.5.1 5.6q.2.7.7.7.3 0 .5-.3 0-.1.2 0l.2.1v.3q-.7 1-1.8.6-1-.2-1.1-1a.1.1 0 0 0-.2-.1c-.8.8-1.9 1.5-3 1.1q-1-.3-1.4-1.2-.5-1.1.2-2 .6-.8 1.8-1.2l2.5-.8q.4-.7 0-1.6c-.2-1.1-1.3-1.1-2.4-1q-.2 0-.3.2l-.3 1.5q-.6.7-1.2.3a.6.6 28.9 0 1-.3-.8q1-1.9 3-2 2.1-.1 2.8 1.6zm9.4 0q1-1.3 2.4-1.5 2.4-.4 3.5 1.7c.4.7.4 1.7.3 2.4a.3.3 2.5 0 1-.3.3h-5.1l-.2.1c0 1.6.8 2.9 2.5 3q1.6.2 2.6-1h.4v.3q-.6 1.2-1.8 1.6-2.6.8-4.4-1.2l-.3-.6-.3-.8-.2-.8v-1l.2-.6q0-1 .7-1.9zm39.9-.7.3 5.3q.3.4.2 1.1-.1.4.3.5h.7l.2.2v.2q0 .3-.2.3h-3.6q-.2 0-.2-.3v-.2a.2.2 5.5 0 1 .3-.1q.5 0 1-.3v-4.2c0-.9 0-2-1.2-2q-1.4-.2-2.5.9v5.2l.1.1q.4.3.8.2a.3.3 0 0 1 .4.3v.1a.2.2 0 0 1-.3.3h-3.5q-.3 0-.2-.3V93q0-.2.3-.2.5 0 .8-.2.2 0 .2-.2.2-2.7 0-4.5 0-.5-.3-1c-.4-.8-1.8-.7-2.4-.3l-1 .5a.2.2 76.2 0 0-.1.3v5q0 .2.2.3l.8.2q.2 0 .3.2v.1q0 .3-.2.3H169q-.3 0-.2-.3v-.1q0-.2.3-.2.5 0 1-.3V87l-1.1-.2-.2-.2q-.2-.4.4-.7l1.9-.8a.2.2 0 0 1 .2.2l.1 1.2a.1.1 63.3 0 0 .2 0q1.2-1.2 2.6-1.4 1.8-.2 2.2 1.4a.2.2 0 0 0 .3 0q1-1.1 2.5-1.4 1.2-.2 2.2.8zm20.8 6.3q-.6.3-.9.9-2 1.2-4 .1-.5-.2-1-1-.5-.5-.6-1.1-.5-1.7 0-3.3.4-1.4 1.4-2 1.2-.9 2.5-.8c2.3.2 3 2.3 2.8 4.3l-.1.2H197l-.1.1c0 1.6.9 3 2.5 3q1.6.2 2.5-1a.3.3 23.2 0 1 .3 0h.2v.3zM115 85.5l-.2.8q-.1 3.2.1 6.4.5.3 1 .2a.2.2 0 0 1 .2.2v.2q0 .3-.2.3h-3.5q-.2 0-.2-.3v-.1a.3.3 5.7 0 1 .3-.3l.9-.2.1-.2q.2-2.5.1-5.3a.2.2 0 0 0-.1-.2l-1.2-.2-.1-.1q-.1-.2 0-.4a.3.3 0 0 1 .1-.2l2.3-1a.3.3 64.7 0 1 .4.2v.2zm51.5 7.1q-.3-3.6-.1-7.2 0-.3-.3-.2h.4l.1.2zm20.6-7.5q-.3 3.9 0 7.6l1 .2q.2 0 .3.3 0 .4-.2.4h-3.5q-.3 0-.3-.3v-.1q.1-.3.3-.3l1-.2v-.2q.2-2.7 0-5.3V87q-.6-.3-1.2-.2l-.1-.1v-.4q0-.2.2-.2z"/><path fill="#0a263a" d="M187.1 85.1q.2 3.8 0 7.6-.3-3.7 0-7.6zm-21.1.1q.4 0 .4.2-.2 3.6 0 7.2.5.4 1 .3.3 0 .3.3v.1q0 .3-.2.3H164q-.2 0-.2-.3v-.2a.2.2 6 0 1 .2-.2l1-.2.1-.2q.2-2.6 0-5.3V87q-.7-.3-1.3-.2l-.1-.2q0-.4.4-.6l2-.8zm-42.1 1.6-1 2-1.3 4.2-.2.7-.2.1h-.4a.2.2 0 0 1-.2-.2l-.1-.3-2.8-7h-.2l-.7-.3-.2-.2v-.3l.2-.1h3.7l.2.1v.4q-.8.3-1.3.2-.2 0-.1.2l2 5.4q0 .4.2 0l1.8-5.3q0-.3-.2-.3L122 86l-.1-.2v-.2q0-.2.2-.2h2.8q.3 0 .2.2l-.1.3a.6.6 0 0 1-.5.2l-.3.1-.1.2q0 .3-.2.4zm-8.9-1.3v7.2q-.3-3.2-.2-6.4l.2-.8zm13.5.4-.6 1.7.3-1.5q0-.2.3-.2z"/><path fill="#17304e" d="M181.5 86q.4.7.4 1 .2 2.1 0 4.3zm-45.5.3q.2 2.9.1 5.6v1q-.4-3.2-.1-6.6zm54.8 0q.2 2.6.1 5.1v.7q.1.4-.1.9-.4-3.3 0-6.7z"/><path fill="#0591e5" d="M132.2 86.7q.3 2.8.1 5.6z"/><path fill="#0a263a" d="M123.9 86.8q-.3 1.4-.7 2.3l-.6 1.5v.1l-1 2.3q.6-2.2 1.4-4.1l.9-2.1zm-20.3.1q-.2.6-.9 1 .3-.6.9-1z"/><path fill="#17304e" d="M130.9 87q.4.8 0 1.5z"/><path fill="#0a263a" d="M137.3 87v5.2q-.2-2.6 0-5.3zm-29 .2-.5 1-.2 1.2v3-3.8l.1-.8.6-.6zm54 3.2q.2 1.2-.1 2.6-.3-1.4 0-2.6zm40 1.9q-.3.6-.9.9.3-.6.9-.9z"/><path fill="none" stroke="#82c8f2" stroke-width=".5" d="M105.5 68.3q-.1-.9.2-1.5" vector-effect="non-scaling-stroke"/><path fill="none" stroke="#8b98a7" stroke-width=".5" d="M117.6 63.3v1.5" vector-effect="non-scaling-stroke"/><path fill="none" stroke="#82c8f2" stroke-width=".5" d="m113.8 71.5.2-1.2m61.3-5.7q.4-.6.3-1.2m30.1 27.3q0-1.7.3-3.1m.3-.6.7-.9" vector-effect="non-scaling-stroke"/><path fill="none" stroke="#8b98a7" stroke-width=".5" d="M131 89.3q-.3 1.4 0 2.7" vector-effect="non-scaling-stroke"/><path fill="none" stroke="#82c8f2" stroke-width=".5" d="M127.7 92.1q-.2-1.1.5-1.7m68.8-2.2.5-1.1" vector-effect="non-scaling-stroke"/><path fill="#fff" d="M74.7 62.3c2.4-1.2 3.8 2.7 1.9 2.7h-3.2q-.2 0-.2-.2.3-2 1.5-2.5zm42.9 1v1.5l-.3.7-.2.2c-1.8 1-3.1-.2-2.8-2l.4-1.1q.3-.4.7-.5 1.7-.3 2.2 1.2zm16.7 0q.5-1 1.5-1.2 1-.1 1.6.5.8.6.5 1.8a.7.7 5.3 0 1-.6.6H134q-.2 0-.2-.2.1-.8.5-1.5zm41 1.3q.4-.6.3-1.2l.6-.8q.3-.3 1-.5 1.2-.2 2 .6.3.2.4.5l.4.9q.2 1.4 0 2.9-.1 1.1-1 1.7-.6.6-1.6.5c-2.3-.2-2-3-2-4.6zm15.9-1.7c.6-1 1.8-1 2.7-.4q1 .6.7 2a.7.7 0 0 1-.7.5h-3.3q-.2 0-.2-.2.1-1 .8-2z"/><path fill="#0a263a" d="m114.7 62.6-.4 1q-.2-.8.4-1z"/><path fill="#17304e" d="M117.6 63.3q.5.8 0 1.5z"/><path fill="#0a263a" d="M175.6 63.4q0 .6-.3 1.2-.1-.8.3-1.2z"/><path fill="#fff" d="m56.5 66.2 2.1-.7a.1.1 0 0 1 .1.1v2.5c-.8.6-1.6 1.1-2.6.7-.4-.1-.6-.5-.7-1q0-1 1.1-1.6z"/><path fill="#17304e" d="m108.7 68.1-.1-2.6q.2 0 .2.2.3 1.4-.1 2.4z"/><path fill="#fff" d="M108.6 65.5v2.6l-.8.6q-.6.3-1 .3-.8 0-1.3-.7-.1-.9.2-1.5a6 6 0 0 1 2.9-1.3z"/><path fill="#0a263a" d="M105.7 66.8q-.3.6-.2 1.5-.6-1 .2-1.5z"/><path fill="#fff" d="m119 70.5-.2 1c-.9 1.4-3.2 1.4-4.4.8q-.4-.2-.6-.8l.2-1.2.4-.6h3.5q.7.1 1 .8z"/><path fill="#0a263a" d="m114 70.3-.2 1.2q-.3-.6.2-1.2z"/><path fill="#17304e" d="M119 70.5q.4.7-.2 1l.2-1z"/><path fill="#fff" d="M98 83a.1.1 0 0 1 .2 0h1.4a2.6 2.6.3 0 1 2.7 2.5v.2a2.6 2.6.3 0 1-2.7 2.5h-1.4a.1.1 0 0 1-.1 0zm48.1 3.7c.4.3.4 1 .3 1.5a.7.7 0 0 1-.7.6h-3.3q-.2 0-.1-.2c0-1.1.7-2.5 2-2.7.8-.2 1.2.2 1.8.8zm50.9 1.5.5-1.1q.4-.7.8-1c1.6-.8 3.2.4 2.9 2.2a.7.7 6 0 1-.7.5h-3.3q-.2 0-.2-.2zm8.7 2.5q0-1.7.3-3.1.1-.5.3-.7l.7-.8q.7-.3 1.3-.2 1.1.1 1.8 1.2v.2l.1 4q0 .4-.2.7c-1 1.3-2.8 1.5-3.7 0q-.3-.3-.6-1.3z"/><path fill="#0a263a" d="m207 86.1-.7.8q-.1-.6.7-.8zm-9.5 1-.4 1.1q-.1-.8.4-1.1zm8.5.5q-.3 1.4-.3 3.1-.4-1.4.1-3v-.2q.2-.1.2 0z"/><path fill="#fff" d="M131 89.3q-.3 1.4 0 2.7-.4 0-1 .5c-.6.4-1.8.5-2.3-.4q-.2-1.1.5-1.7 1.2-.8 2.7-1z"/><path fill="#17304e" d="M131 89.3q.4 1.5 0 2.7-.3-1.3 0-2.7z"/><path fill="#0a263a" d="M128.2 90.4q-.7.6-.5 1.7-.4-.4 0-1.2.1-.4.5-.5z"/></svg>